<mxfile host="app.diagrams.net" agent="Mozilla/5.0 (Windows NT 10.0; Win64; x64) AppleWebKit/537.36 (KHTML, like Gecko) Chrome/126.0.0.0 Safari/537.36 Edg/126.0.0.0" version="24.7.4">
  <diagram name="第 1 页" id="iTafLIombbp_QIYKXIky">
    <mxGraphModel dx="978" dy="626" grid="1" gridSize="10" guides="1" tooltips="1" connect="1" arrows="1" fold="1" page="1" pageScale="1" pageWidth="1200" pageHeight="1920" math="0" shadow="0">
      <root>
        <mxCell id="0" />
        <mxCell id="1" parent="0" />
        <mxCell id="60w6WHb_9XuDCg6fRLU2-4" value="" style="curved=1;endArrow=classic;html=1;rounded=0;entryX=0;entryY=0;entryDx=0;entryDy=0;exitX=0;exitY=1;exitDx=0;exitDy=0;" edge="1" parent="1" source="60w6WHb_9XuDCg6fRLU2-29" target="60w6WHb_9XuDCg6fRLU2-32">
          <mxGeometry width="50" height="50" relative="1" as="geometry">
            <mxPoint x="320" y="840" as="sourcePoint" />
            <mxPoint x="450" y="930" as="targetPoint" />
            <Array as="points">
              <mxPoint x="330" y="960" />
            </Array>
          </mxGeometry>
        </mxCell>
        <mxCell id="60w6WHb_9XuDCg6fRLU2-6" value="" style="curved=1;endArrow=classic;html=1;rounded=0;entryX=0;entryY=0;entryDx=0;entryDy=0;exitX=0;exitY=1;exitDx=0;exitDy=0;" edge="1" parent="1" source="60w6WHb_9XuDCg6fRLU2-29" target="60w6WHb_9XuDCg6fRLU2-24">
          <mxGeometry width="50" height="50" relative="1" as="geometry">
            <mxPoint x="335" y="850" as="sourcePoint" />
            <mxPoint x="410" y="1290" as="targetPoint" />
            <Array as="points">
              <mxPoint x="300" y="1290" />
            </Array>
          </mxGeometry>
        </mxCell>
        <mxCell id="60w6WHb_9XuDCg6fRLU2-8" value="" style="curved=1;endArrow=classic;html=1;rounded=0;entryX=0;entryY=0;entryDx=0;entryDy=0;exitX=0;exitY=1;exitDx=0;exitDy=0;" edge="1" parent="1" source="60w6WHb_9XuDCg6fRLU2-29" target="60w6WHb_9XuDCg6fRLU2-26">
          <mxGeometry width="50" height="50" relative="1" as="geometry">
            <mxPoint x="335" y="850" as="sourcePoint" />
            <mxPoint x="400" y="1670" as="targetPoint" />
            <Array as="points">
              <mxPoint x="220" y="1520" />
            </Array>
          </mxGeometry>
        </mxCell>
        <mxCell id="60w6WHb_9XuDCg6fRLU2-9" value="部门D" style="rounded=0;whiteSpace=wrap;html=1;" vertex="1" parent="1">
          <mxGeometry x="640" y="1120" width="120" height="60" as="geometry" />
        </mxCell>
        <mxCell id="60w6WHb_9XuDCg6fRLU2-10" value="" style="curved=1;endArrow=classic;html=1;rounded=0;entryX=0;entryY=0.5;entryDx=0;entryDy=0;exitX=1;exitY=1;exitDx=0;exitDy=0;" edge="1" parent="1" source="60w6WHb_9XuDCg6fRLU2-32" target="60w6WHb_9XuDCg6fRLU2-9">
          <mxGeometry width="50" height="50" relative="1" as="geometry">
            <mxPoint x="630" y="1090" as="sourcePoint" />
            <mxPoint x="720" y="1140" as="targetPoint" />
            <Array as="points">
              <mxPoint x="600" y="1140" />
            </Array>
          </mxGeometry>
        </mxCell>
        <mxCell id="60w6WHb_9XuDCg6fRLU2-11" value="部门E" style="rounded=0;whiteSpace=wrap;html=1;" vertex="1" parent="1">
          <mxGeometry x="640" y="1240" width="120" height="60" as="geometry" />
        </mxCell>
        <mxCell id="60w6WHb_9XuDCg6fRLU2-12" value="" style="curved=1;endArrow=classic;html=1;rounded=0;entryX=0;entryY=0.5;entryDx=0;entryDy=0;exitX=1;exitY=1;exitDx=0;exitDy=0;" edge="1" parent="1" source="60w6WHb_9XuDCg6fRLU2-32" target="60w6WHb_9XuDCg6fRLU2-11">
          <mxGeometry width="50" height="50" relative="1" as="geometry">
            <mxPoint x="700" y="1050" as="sourcePoint" />
            <mxPoint x="700" y="1130" as="targetPoint" />
            <Array as="points">
              <mxPoint x="550" y="1170" />
            </Array>
          </mxGeometry>
        </mxCell>
        <mxCell id="60w6WHb_9XuDCg6fRLU2-13" value="部门F" style="rounded=0;whiteSpace=wrap;html=1;" vertex="1" parent="1">
          <mxGeometry x="760" y="1360" width="120" height="60" as="geometry" />
        </mxCell>
        <mxCell id="60w6WHb_9XuDCg6fRLU2-14" value="部门H" style="rounded=0;whiteSpace=wrap;html=1;" vertex="1" parent="1">
          <mxGeometry x="760" y="1440" width="120" height="60" as="geometry" />
        </mxCell>
        <mxCell id="60w6WHb_9XuDCg6fRLU2-15" value="" style="curved=1;endArrow=classic;html=1;rounded=0;entryX=0;entryY=0.5;entryDx=0;entryDy=0;exitX=0.5;exitY=1;exitDx=0;exitDy=0;" edge="1" parent="1" source="60w6WHb_9XuDCg6fRLU2-11" target="60w6WHb_9XuDCg6fRLU2-13">
          <mxGeometry width="50" height="50" relative="1" as="geometry">
            <mxPoint x="800" y="1320" as="sourcePoint" />
            <mxPoint x="850" y="1270" as="targetPoint" />
            <Array as="points">
              <mxPoint x="710" y="1390" />
            </Array>
          </mxGeometry>
        </mxCell>
        <mxCell id="60w6WHb_9XuDCg6fRLU2-16" value="" style="curved=1;endArrow=classic;html=1;rounded=0;entryX=0;entryY=0.5;entryDx=0;entryDy=0;exitX=0.5;exitY=1;exitDx=0;exitDy=0;" edge="1" parent="1" source="60w6WHb_9XuDCg6fRLU2-11" target="60w6WHb_9XuDCg6fRLU2-14">
          <mxGeometry width="50" height="50" relative="1" as="geometry">
            <mxPoint x="810" y="1370" as="sourcePoint" />
            <mxPoint x="860" y="1320" as="targetPoint" />
            <Array as="points">
              <mxPoint x="690" y="1460" />
            </Array>
          </mxGeometry>
        </mxCell>
        <mxCell id="60w6WHb_9XuDCg6fRLU2-24" value="部门C" style="swimlane;whiteSpace=wrap;html=1;" vertex="1" parent="1">
          <mxGeometry x="400" y="1320" width="200" height="120" as="geometry">
            <mxRectangle x="400" y="1320" width="70" height="30" as="alternateBounds" />
          </mxGeometry>
        </mxCell>
        <mxCell id="60w6WHb_9XuDCg6fRLU2-21" value="Actor" style="shape=umlActor;verticalLabelPosition=bottom;verticalAlign=top;html=1;outlineConnect=0;" vertex="1" parent="60w6WHb_9XuDCg6fRLU2-24">
          <mxGeometry x="40" y="40" width="30" height="60" as="geometry" />
        </mxCell>
        <mxCell id="60w6WHb_9XuDCg6fRLU2-25" value="Actor" style="shape=umlActor;verticalLabelPosition=bottom;verticalAlign=top;html=1;outlineConnect=0;" vertex="1" parent="60w6WHb_9XuDCg6fRLU2-24">
          <mxGeometry x="80" y="40" width="30" height="60" as="geometry" />
        </mxCell>
        <mxCell id="60w6WHb_9XuDCg6fRLU2-26" value="部门G" style="swimlane;whiteSpace=wrap;html=1;" vertex="1" parent="1">
          <mxGeometry x="400" y="1560" width="200" height="120" as="geometry">
            <mxRectangle x="400" y="1560" width="70" height="30" as="alternateBounds" />
          </mxGeometry>
        </mxCell>
        <mxCell id="60w6WHb_9XuDCg6fRLU2-27" value="Actor" style="shape=umlActor;verticalLabelPosition=bottom;verticalAlign=top;html=1;outlineConnect=0;" vertex="1" parent="60w6WHb_9XuDCg6fRLU2-26">
          <mxGeometry x="40" y="40" width="30" height="60" as="geometry" />
        </mxCell>
        <mxCell id="60w6WHb_9XuDCg6fRLU2-28" value="Actor" style="shape=umlActor;verticalLabelPosition=bottom;verticalAlign=top;html=1;outlineConnect=0;" vertex="1" parent="60w6WHb_9XuDCg6fRLU2-26">
          <mxGeometry x="80" y="40" width="30" height="60" as="geometry" />
        </mxCell>
        <mxCell id="60w6WHb_9XuDCg6fRLU2-29" value="部门A" style="swimlane;whiteSpace=wrap;html=1;" vertex="1" parent="1">
          <mxGeometry x="320" y="720" width="200" height="120" as="geometry">
            <mxRectangle x="320" y="720" width="70" height="30" as="alternateBounds" />
          </mxGeometry>
        </mxCell>
        <mxCell id="60w6WHb_9XuDCg6fRLU2-30" value="Actor" style="shape=umlActor;verticalLabelPosition=bottom;verticalAlign=top;html=1;outlineConnect=0;" vertex="1" parent="60w6WHb_9XuDCg6fRLU2-29">
          <mxGeometry x="40" y="40" width="30" height="60" as="geometry" />
        </mxCell>
        <mxCell id="60w6WHb_9XuDCg6fRLU2-31" value="Actor" style="shape=umlActor;verticalLabelPosition=bottom;verticalAlign=top;html=1;outlineConnect=0;" vertex="1" parent="60w6WHb_9XuDCg6fRLU2-29">
          <mxGeometry x="80" y="40" width="30" height="60" as="geometry" />
        </mxCell>
        <mxCell id="60w6WHb_9XuDCg6fRLU2-32" value="部门B" style="swimlane;whiteSpace=wrap;html=1;" vertex="1" parent="1">
          <mxGeometry x="400" y="960" width="200" height="120" as="geometry">
            <mxRectangle x="400" y="960" width="70" height="30" as="alternateBounds" />
          </mxGeometry>
        </mxCell>
        <mxCell id="60w6WHb_9XuDCg6fRLU2-33" value="Actor" style="shape=umlActor;verticalLabelPosition=bottom;verticalAlign=top;html=1;outlineConnect=0;" vertex="1" parent="60w6WHb_9XuDCg6fRLU2-32">
          <mxGeometry x="40" y="40" width="30" height="60" as="geometry" />
        </mxCell>
        <mxCell id="60w6WHb_9XuDCg6fRLU2-34" value="Actor" style="shape=umlActor;verticalLabelPosition=bottom;verticalAlign=top;html=1;outlineConnect=0;" vertex="1" parent="60w6WHb_9XuDCg6fRLU2-32">
          <mxGeometry x="80" y="40" width="30" height="60" as="geometry" />
        </mxCell>
      </root>
    </mxGraphModel>
  </diagram>
</mxfile>
